<?xml version="1.0" encoding="utf-8"?>
<svg version="1.1" fill="currentColor" xmlns="http://www.w3.org/2000/svg" xmlns:xlink="http://www.w3.org/1999/xlink" x="0px" y="0px"
	 viewBox="0 0 375 375" xml:space="preserve">
<style type="text/css">
	.st0{fill:#FFFFFF;}
</style>
<path d="M315.8,335H59.4c-10.6,0-19.2-8.6-19.2-19.2V59.4c0-10.6,8.6-19.2,19.2-19.2h256.4c10.6,0,19.2,8.6,19.2,19.2v256.4
	C335,326.4,326.4,335,315.8,335z"/>
<g>
	<g>
		<g>
			<path class="st0" d="M93.1,121.5c-1.9,0-3.8,1.5-4.1,3.4C59.9,262.2,59.7,262.6,59.7,262.7c0,1.5,1.4,2.6,2.9,2.6h18.1
				c1.9,0,3.6-1.5,4.1-3.4l13.9-65c7.5,65.4,7.4,65.7,7.4,65.9c0,1.5,1.4,2.6,2.9,2.6h17.8c1.9,0,3.6-1.5,4.1-3.4L160,124.3
				c0-1.5-1-2.7-2.7-2.7h-17.8c-1.9,0-3.8,1.5-4.1,3.4l-14.9,70.2l-6.5-70.9c0-1.5-1-2.7-2.7-2.7H93.1z"/>
		</g>
	</g>
</g>
<g>
	<g>
		<g>
			<path class="st0" d="M149.7,261.9c0,0.3-0.2,0.7-0.2,0.9c0,1.5,1.4,2.6,2.9,2.6h20.4c1.9,0,3.6-1.5,4.1-3.4l9.9-47.2h21.9
				c1.9,0,3.8-1.5,4.3-3.4c3.4-17.1,3.6-17.3,3.6-17.6c0-1.5-1.2-2.6-2.7-2.6H192l10.1-47.4H229c1.9,0,3.8-1.5,4.1-3.4l3.4-15.9
				c0-1.5-1-2.7-2.7-2.7h-50.8c-1.9,0-3.8,1.5-4.1,3.4L149.7,261.9z"/>
		</g>
	</g>
</g>
<g>
	<g>
		<g>
			<path class="st0" d="M225.5,94.2c-1.9,0-3.8,1.5-4.1,3.4l-3.2,15.2c0,2.1,1,3.4,2.7,3.4H255c-31,146-31.1,146.3-31.1,146.5
				c0,1.5,1.4,2.6,2.9,2.6h20.2c1.9,0,3.6-1.5,4.1-3.4l31-145.6h34.1c1.9,0,3.8-1.5,4.1-3.4l3.3-15.9c0-1.5-1-2.7-2.7-2.7H225.5z"/>
		</g>
	</g>
</g>
</svg>
